<svg width="45" height="49" viewBox="0 0 45 49" fill="none" xmlns="http://www.w3.org/2000/svg">
<ellipse cx="23" cy="26.56" rx="22" ry="21.56" fill="#FF817B"/>
<path d="M43.5 23.5C43.5 35.0872 33.885 44.5 22 44.5C10.115 44.5 0.5 35.0872 0.5 23.5C0.5 11.9128 10.115 2.5 22 2.5C33.885 2.5 43.5 11.9128 43.5 23.5Z" fill="#FFA5A3" stroke="#FFA5A3"/>
<path d="M15.07 32.19H16.11V33.26C16.11 34.83 15.48 36.4 13.97 37.04L13.27 36.01C14.56 35.44 15.07 34.3 15.07 33.26V32.19ZM15.31 32.19H16.35V33.26C16.35 34.25 16.85 35.25 18.07 35.73L17.36 36.74C15.92 36.17 15.31 34.77 15.31 33.26V32.19ZM20.03 31.64H21.29V37.29H20.03V31.64ZM18.92 33.88H20.39V34.95H18.92V33.88ZM18.07 31.81H19.31V37H18.07V31.81ZM18.15 37.42C20.09 37.42 21.34 38.07 21.34 39.16C21.34 40.24 20.09 40.89 18.15 40.89C16.2 40.89 14.97 40.24 14.97 39.16C14.97 38.07 16.2 37.42 18.15 37.42ZM18.15 38.42C16.96 38.42 16.29 38.67 16.29 39.16C16.29 39.65 16.96 39.89 18.15 39.89C19.34 39.89 20 39.65 20 39.16C20 38.67 19.34 38.42 18.15 38.42ZM24.3412 32.11H25.4512V32.94C25.4512 34.8 24.6212 36.43 22.8012 37.04L22.1112 35.97C23.6912 35.46 24.3412 34.21 24.3412 32.94V32.11ZM24.6212 32.11H25.6912V32.88C25.6912 34.11 26.2912 35.25 27.7612 35.72L27.0712 36.76C25.3612 36.17 24.6212 34.68 24.6212 32.88V32.11ZM28.6112 31.63H29.9412V37.05H28.6112V31.63ZM26.8012 37.29C28.7612 37.29 29.9712 37.96 29.9712 39.09C29.9712 40.23 28.7612 40.89 26.8012 40.89C24.8412 40.89 23.6312 40.23 23.6312 39.09C23.6312 37.96 24.8412 37.29 26.8012 37.29ZM26.8012 38.32C25.6012 38.32 24.9612 38.57 24.9612 39.09C24.9612 39.61 25.6012 39.87 26.8012 39.87C28.0112 39.87 28.6512 39.61 28.6512 39.09C28.6512 38.57 28.0112 38.32 26.8012 38.32ZM26.9212 33.31H28.8012V34.39H26.9212V33.31Z" fill="white"/>
<g clip-path="url(#clip0_0_1)">
<path d="M13.5 9.5L14.5 8L16 8.5L18 13.1709L19.0635 12.6709H21.0635L23.0635 12.1709L24.5635 13.6709L26.0635 12.6709L27.0635 13.1709L30.0635 25.1709L21.5635 28.1709L18.1038 25.1709L12 19.5V18H14L16.5 19L13.5 9.5Z" fill="white"/>
<path d="M30.3553 26.1874L21.7462 29.1262C21.3447 29.2632 20.9259 29.0576 20.7888 28.6561C20.4081 27.5409 19.6597 27.0991 18.5218 26.3919C17.893 26.0089 17.1891 25.5518 16.4396 24.961C14.3552 23.2321 12.2981 21.1452 11.6955 20.2552C11.0929 19.3652 11.0733 18.7244 11.2192 18.2762C11.3791 17.7235 11.8383 17.3178 12.4628 17.1046C13.3103 16.8153 14.4461 17.2245 15.5242 17.9023L13.0118 10.5422C12.6006 9.33776 13.2622 8.06602 14.422 7.67012C15.5818 7.27422 16.8982 7.92059 17.2941 9.08037L18.3143 12.0691C18.5068 11.9037 18.7146 11.783 18.9823 11.6916C19.7406 11.4327 20.5468 11.6058 21.1462 12.0487C21.3975 11.7636 21.7239 11.5526 22.1254 11.4156C23.1067 11.0806 24.1827 11.4604 24.7103 12.2764C24.9028 12.111 25.1553 11.9751 25.4675 11.8685C26.6719 11.4574 27.9436 12.1189 28.3395 13.2787L29.0704 15.4199C29.6947 17.2488 29.8556 18.8872 29.986 20.4365C30.1316 22.0303 30.2316 23.4904 30.8102 25.1854C30.9472 25.5869 30.7568 26.0504 30.3553 26.1874ZM21.9726 27.4551L29.199 24.9884C28.7553 23.3967 28.6259 21.9965 28.4966 20.5963C28.3662 19.047 28.2064 17.5576 27.643 15.9071L26.8664 13.6322C26.7294 13.2307 26.3106 13.025 25.9091 13.1621C25.5076 13.2991 25.302 13.718 25.439 14.1194L25.7283 14.967C25.8654 15.3684 25.6597 15.7873 25.2582 15.9243C24.8568 16.0614 24.4379 15.8557 24.3009 15.4542L23.5243 13.1793C23.3873 12.7778 22.9684 12.5721 22.567 12.7092C22.1655 12.8462 21.9598 13.2651 22.0969 13.6665L22.6298 15.2278C22.7669 15.6292 22.5612 16.0481 22.1597 16.1851C21.7583 16.3222 21.3394 16.1165 21.2024 15.715L20.4258 13.4401C20.2888 13.0386 19.8699 12.8329 19.4685 12.97C19.067 13.107 18.8613 13.5259 18.9984 13.9273L19.5313 15.4886C19.6684 15.8901 19.4627 16.3089 19.0612 16.4459C18.6598 16.583 18.2409 16.3773 18.1039 15.9758L15.8503 9.37398C15.7133 8.97251 15.2944 8.76685 14.893 8.90389C14.4915 9.04093 14.2858 9.45977 14.4229 9.86124L18.1383 20.7454C18.2753 21.1469 18.0696 21.5657 17.6682 21.7027C17.2667 21.8398 16.8479 21.6341 16.7108 21.2327L16.5129 20.6528C15.325 19.2155 13.4103 18.2753 12.9642 18.4276C12.7858 18.4885 12.7118 18.5635 12.7129 18.7126C12.6987 18.817 12.7302 19.0553 12.926 19.3371C13.4079 20.0193 15.3149 21.9582 17.4743 23.7611C18.164 24.3226 18.7928 24.7056 19.4216 25.0886C20.4399 25.7371 21.3384 26.3269 21.9726 27.4551Z" fill="#FF827C"/>
</g>
<defs>
<clipPath id="clip0_0_1">
<rect width="30.1661" height="30.1661" fill="white" transform="translate(4 9.74512) rotate(-18.8476)"/>
</clipPath>
</defs>
</svg>
