<svg width="72" height="70" viewBox="0 0 72 70" fill="none" xmlns="http://www.w3.org/2000/svg">
<path fill-rule="evenodd" clip-rule="evenodd" d="M35.5156 0C32.1531 0 29.4273 2.72583 29.4273 6.0883V29.0001H6C2.68629 29.0001 1.46978e-07 31.6864 0 35.0001C-1.46978e-07 38.3138 2.68628 41.0001 5.99999 41.0001H29.4273V63.9117C29.4273 67.2742 32.1531 70 35.5156 70C38.878 70 41.6039 67.2742 41.6039 63.9117V41.0001H65.0302C68.3439 41.0001 71.0302 38.3138 71.0302 35.0001C71.0302 31.6864 68.3439 29.0001 65.0302 29.0001H41.6039V6.0883C41.6039 2.72583 38.878 0 35.5156 0Z" fill="#FFBBBB"/>
</svg>
