<svg width="321" height="82" viewBox="0 0 321 82" fill="none" xmlns="http://www.w3.org/2000/svg">
<path d="M1 30.2077C1 14.0767 14.0767 1 30.2077 1H290.792C306.923 1 320 14.0767 320 30.2077V40.4344C320 56.5654 306.925 69.6421 290.794 69.6421H290.771H290.747H290.724H290.701H290.677H290.654H290.63H290.607H290.583H290.56H290.536H290.513H290.489H290.466H290.442H290.419H290.395H290.372H290.348H290.325H290.301H290.278H290.254H290.231H290.207H290.184H290.16H290.136H290.113H290.089H290.066H290.042H290.018H289.995H289.971H289.948H289.924H289.9H289.877H289.853H289.829H289.806H289.782H289.758H289.735H289.711H289.687H289.663H289.64H289.616H289.592H289.569H289.545H289.521H289.497H289.473H289.45H289.426H289.402H289.378H289.355H289.331H289.307H289.283H289.259H289.235H289.212H289.188H289.164H289.14H289.116H289.092H289.068H289.044H289.02H288.997H288.973H288.949H288.925H288.901H288.877H288.853H288.829H288.805H288.781H288.757H288.733H288.709H288.685H288.661H288.637H288.613H288.589H288.565H288.541H288.517H288.492H288.468H288.444H288.42H288.396H288.372H288.348H288.324H288.299H288.275H288.251H288.227H288.203H288.179H288.154H288.13H288.106H288.082H288.057H288.033H288.009H287.985H287.96H287.936H287.912H287.888H287.863H287.839H287.815H287.79H287.766H287.742H287.717H287.693H287.668H287.644H287.62H287.595H287.571H287.546H287.522H287.498H287.473H287.449H287.424H287.4H287.375H287.351H287.326H287.302H287.277H287.253H287.228H287.204H287.179H287.154H287.13H287.105H287.081H287.056H287.031H287.007H286.982H286.957H286.933H286.908H286.883H286.859H286.834H286.809H286.785H286.76H286.735H286.71H286.686H286.661H286.636H286.611H286.586H286.562H286.537H286.512H286.487H286.462H286.438H286.413H286.388H286.363H286.338H286.313H286.288H286.263H286.238H286.213H286.188H286.163H286.138H286.113H286.088H286.063H286.038H286.013H285.988H285.963H285.938H285.913H285.888H285.863H285.838H285.813H285.787H285.762H285.737H285.712H285.687H285.662H285.636H285.611H285.586H285.561H285.535H285.51H285.485H285.46H285.434H285.409H285.384H285.358H285.333H285.308H285.282H285.257H285.232H285.206H285.181H285.155H285.13H285.105H285.079H285.054H285.028H285.003H284.977H284.952H284.926H284.901H284.875H284.85H284.824H284.798H284.773H284.747H284.722H284.696H284.67H284.645H284.619H284.593H284.568H284.542H284.516H284.491H284.465H284.439H284.413H284.388H284.362H284.336H284.31H284.284H284.259H284.233H284.207H284.181H284.155H284.129H284.103H284.077H284.052H284.026H284H283.974H283.948H283.922H283.896H283.87H283.844H283.818H283.792H283.765H283.739H283.713H283.687H283.661H283.635H283.609H283.583H283.556H283.53H283.504H283.478H283.452H283.425H283.399H283.373H283.347H283.32H283.294H283.268H283.241H283.215H283.189H283.162H283.136H283.11H283.083H283.057H283.03H283.004H282.977H282.951H282.924H282.898H282.871H282.845H282.818H282.792H282.765H282.739H282.712H282.685H282.659H282.632H282.605H282.579H282.552H282.525H282.499H282.472H282.445H282.419H282.392H282.365H282.338H282.311H282.285H282.258H282.231H282.204H282.177H282.15H282.123H282.096H282.07H282.043H282.016H281.989H281.962H281.935H281.908H281.881H281.854H281.826H281.799H281.772H281.745H281.718H281.691H281.664H281.637H281.609H281.582H281.555H281.528H281.501H281.473H281.446H281.419H281.391H281.364H281.337H281.309H281.282H281.255H281.227H281.2H281.172H281.145H281.118H281.09H281.063H281.035H281.008H280.98H280.953H280.925H280.897H280.87H280.842H280.815H280.787H280.759H280.732H280.704H280.676H280.649H280.621H280.593H280.565H280.538H280.51H280.482H280.454H280.426H280.399H280.371H280.343H280.315H280.287H280.259H280.231H280.203H280.175H280.147H280.119H280.091H280.063H280.035H280.007H279.979H279.951H279.923H279.894H279.866H279.838H279.81H279.782H279.754H279.725H279.697H279.669H279.64H279.612H279.584H279.556H279.527H279.499H279.47H279.442H279.414H279.385H279.357H279.328H279.3H279.271H279.243H279.214H279.186H279.157H279.128H279.1H279.071H279.043H279.014H278.985H278.957H278.928H278.899H278.87H278.842H278.813H278.784H278.755H278.727H278.698H278.669H278.64H278.611H278.582H278.553H278.524H278.495H278.466H278.437H278.408H278.379H278.35H278.321H278.292H278.263H278.234H278.205H278.176H278.146H278.117H278.088H278.059H278.029H278H277.971H277.942H277.912H277.883H277.854H277.824H277.795H277.765H277.736H277.707H277.677H277.648H277.618H277.589H277.559H277.53H277.5C275.366 69.6421 273.849 70.448 272.709 71.6504C271.618 72.7993 270.885 74.3026 270.237 75.6329L270.234 75.6382C269.556 77.03 268.965 78.2407 268.155 79.1299C267.397 79.9621 266.454 80.5 265 80.5C264.132 80.5 263.254 80.032 262.238 79.0753C261.398 78.2844 260.58 77.2759 259.678 76.1639C259.485 75.9261 259.288 75.6835 259.087 75.4374C256.907 72.777 254.143 69.6421 250.067 69.6421H249.685H249.302H248.919H248.535H248.152H247.768H247.384H246.999H246.615H246.23H245.845H245.46H245.074H244.689H244.303H243.916H243.53H243.143H242.756H242.369H241.982H241.594H241.206H240.818H240.43H240.042H239.653H239.264H238.875H238.485H238.096H237.706H237.316H236.925H236.535H236.144H235.753H235.361H234.97H234.578H234.186H233.794H233.402H233.009H232.616H232.223H231.83H231.436H231.043H230.649H230.254H229.86H229.465H229.071H228.676H228.28H227.885H227.489H227.093H226.697H226.3H225.904H225.507H225.11H224.713H224.315H223.918H223.52H223.121H222.723H222.325H221.926H221.527H221.128H220.728H220.329H219.929H219.529H219.128H218.728H218.327H217.926H217.525H217.124H216.722H216.32H215.918H215.516H215.114H214.711H214.308H213.905H213.502H213.099H212.695H212.291H211.887H211.483H211.078H210.674H210.269H209.864H209.458H209.053H208.647H208.241H207.835H207.429H207.022H206.616H206.209H205.801H205.394H204.987H204.579H204.171H203.763H203.354H202.946H202.537H202.128H201.719H201.31H200.9H200.49H200.08H199.67H199.26H198.849H198.439H198.028H197.617H197.205H196.794H196.382H195.97H195.558H195.146H194.733H194.321H193.908H193.495H193.081H192.668H192.254H191.84H191.426H191.012H190.598H190.183H189.768H189.353H188.938H188.523H188.107H187.692H187.276H186.86H186.443H186.027H185.61H185.193H184.776H184.359H183.942H183.524H183.106H182.688H182.27H181.852H181.433H181.015H180.596H180.177H179.758H179.338H178.918H178.499H178.079H177.659H177.238H176.818H176.397H175.976H175.555H175.134H174.713H174.291H173.869H173.447H173.025H172.603H172.18H171.758H171.335H170.912H170.489H170.065H169.642H169.218H168.794H168.37H167.946H167.522H167.097H166.672H166.248H165.823H165.397H164.972H164.546H164.121H163.695H163.269H162.842H162.416H161.989H161.563H161.136H160.708H160.281H159.854H159.426H158.998H158.571H158.142H157.714H157.286H156.857H156.428H156H155.57H155.141H154.712H154.282H153.853H153.423H152.993H152.562H152.132H151.701H151.271H150.84H150.409H149.978H149.546H149.115H148.683H148.251H147.819H147.387H146.955H146.523H146.09H145.657H145.224H144.791H144.358H143.925H143.491H143.058H142.624H142.19H141.756H141.321H140.887H140.452H140.018H139.583H139.148H138.713H138.277H137.842H137.406H136.97H136.534H136.098H135.662H135.226H134.789H134.352H133.916H133.479H133.041H132.604H132.167H131.729H131.291H130.854H130.416H129.978H129.539H129.101H128.662H128.224H127.785H127.346H126.907H126.467H126.028H125.588H125.149H124.709H124.269H123.829H123.388H122.948H122.507H122.067H121.626H121.185H120.744H120.303H119.861H119.42H118.978H118.536H118.095H117.653H117.21H116.768H116.326H115.883H115.44H114.997H114.554H114.111H113.668H113.225H112.781H112.338H111.894H111.45H111.006H110.562H110.118H109.673H109.229H108.784H108.339H107.894H107.449H107.004H106.559H106.113H105.668H105.222H104.776H104.33H103.884H103.438H102.992H102.545H102.099H101.652H101.205H100.758H100.311H99.8641H99.4168H98.9694H98.5218H98.0742H97.6264H97.1785H96.7305H96.2824H95.8341H95.3857H94.9373H94.4887H94.0399H93.5911H93.1421H92.6931H92.2439H91.7946H91.3451H90.8956H90.446H89.9962H89.5463H89.0963H88.6462H88.196H87.7456H87.2952H86.8446H86.394H85.9432H85.4923H85.0413H84.5902H84.1389H83.6876H83.2361H82.7846H82.3329H81.8811H81.4293H80.9773H80.5252H80.073H79.6207H79.1682H78.7157H78.2631H77.8103H77.3575H76.9045H76.4515H75.9983H75.5451H75.0917H74.6382H74.1846H73.731H73.2772H72.8233H72.3693H71.9152H71.461H71.0068H70.5524H70.0979H69.6433H69.1886H68.7338H68.2789H67.8239H67.3689H66.9137H66.4584H66.003H65.5475H65.092H64.6363H64.1805H63.7247H63.2687H62.8127H62.3565H61.9003H61.444H60.9875H60.531H60.0744H59.6177H59.1609H58.704H58.247H57.7899H57.3328H56.8755H56.4182H55.9607H55.5032H55.0456H54.5879H54.1301H53.6722H53.2142H52.7562H52.298H51.8398H51.3815H50.9231H50.4646H50.006H49.5473H49.0886H48.6297H48.1708H47.7118H47.2527H46.7936H46.3343H45.875H45.4156H44.956H44.4965H44.0368H43.577H43.1172H42.6573H42.1973H41.7373H41.2771H40.8169H40.3566H39.8962H39.4357H38.9752H38.5145H38.0538H37.5931H37.1322H36.6713H36.2103H35.7492H35.288H34.8268H34.3655H33.9041H33.4427H32.9811H32.5195H32.0579H31.5961H31.1343H30.6724H30.2104C14.0794 69.6421 1 56.5652 1 40.4344V30.2077Z" fill="white" stroke="#FFADAC" stroke-width="2"/>
<path d="M22.794 21.528H23.746V23.796C23.746 26.596 22.234 29.326 20.232 30.39L19.518 29.466C21.352 28.542 22.794 26.106 22.794 23.796V21.528ZM23.004 21.528H23.942V23.796C23.942 26.022 25.356 28.332 27.148 29.228L26.434 30.152C24.474 29.102 23.004 26.512 23.004 23.796V21.528ZM28.254 20.436H29.43V33.092H28.254V20.436ZM29.15 25.56H31.502V26.54H29.15V25.56ZM41.2309 20.436H42.3929V28.08H41.2309V20.436ZM42.0429 23.6H44.2689V24.566H42.0429V23.6ZM33.1249 26.4H34.1189C36.4149 26.4 38.0529 26.33 40.0269 25.98L40.1249 26.946C38.1229 27.282 36.4569 27.366 34.1189 27.366H33.1249V26.4ZM33.0969 21.22H38.7949V24.664H34.2589V27.016H33.1249V23.754H37.6469V22.172H33.0969V21.22ZM38.3469 28.472C40.9369 28.472 42.5049 29.312 42.5049 30.768C42.5049 32.238 40.9369 33.078 38.3469 33.078C35.7709 33.078 34.1889 32.238 34.1889 30.768C34.1889 29.312 35.7709 28.472 38.3469 28.472ZM38.3469 29.382C36.4569 29.382 35.3229 29.886 35.3229 30.768C35.3229 31.664 36.4569 32.168 38.3469 32.168C40.2369 32.168 41.3849 31.664 41.3849 30.768C41.3849 29.886 40.2369 29.382 38.3469 29.382ZM54.0258 20.436H55.1878V33.092H54.0258V20.436ZM54.9078 25.63H57.2598V26.61H54.9078V25.63ZM45.3878 22.452H52.8498V23.404H45.3878V22.452ZM49.1678 24.454C50.9598 24.454 52.2478 25.658 52.2478 27.366C52.2478 29.074 50.9598 30.278 49.1678 30.278C47.3898 30.278 46.0878 29.074 46.0878 27.366C46.0878 25.658 47.3898 24.454 49.1678 24.454ZM49.1678 25.42C48.0198 25.42 47.1938 26.218 47.1938 27.366C47.1938 28.5 48.0198 29.312 49.1678 29.312C50.3158 29.312 51.1418 28.5 51.1418 27.366C51.1418 26.218 50.3158 25.42 49.1678 25.42ZM48.5658 20.59H49.7278V22.886H48.5658V20.59ZM59.8767 24.23H68.4727V25.182H59.8767V24.23ZM58.3227 26.876H69.8027V27.828H58.3227V26.876ZM59.8767 20.898H61.0247V24.706H59.8767V20.898ZM59.7927 31.832H68.5427V32.784H59.7927V31.832ZM59.7927 29.088H60.9407V32.084H59.7927V29.088ZM77.919 21.528H78.871V23.796C78.871 26.596 77.359 29.326 75.357 30.39L74.643 29.466C76.477 28.542 77.919 26.106 77.919 23.796V21.528ZM78.129 21.528H79.067V23.796C79.067 26.022 80.481 28.332 82.273 29.228L81.559 30.152C79.599 29.102 78.129 26.512 78.129 23.796V21.528ZM83.379 20.436H84.555V33.092H83.379V20.436ZM84.275 25.56H86.627V26.54H84.275V25.56ZM96.3559 20.45H97.5179V27.982H96.3559V20.45ZM97.1679 23.67H99.3939V24.65H97.1679V23.67ZM89.5379 28.612H97.5179V32.924H89.5379V28.612ZM96.3839 29.536H90.6859V31.986H96.3839V29.536ZM88.2499 26.372H89.2439C91.5399 26.372 93.1779 26.316 95.1519 25.966L95.2499 26.918C93.2479 27.254 91.5819 27.338 89.2439 27.338H88.2499V26.372ZM88.2219 21.122H93.9199V24.594H89.3839V26.918H88.2499V23.698H92.7719V22.074H88.2219V21.122ZM105.707 25.35H108.101V26.316H105.707V25.35ZM110.215 20.436H111.335V33.092H110.215V20.436ZM107.709 20.702H108.815V32.462H107.709V20.702ZM103.425 21.486C105.063 21.486 106.127 23.18 106.127 25.896C106.127 28.612 105.063 30.306 103.425 30.306C101.787 30.306 100.737 28.612 100.737 25.896C100.737 23.18 101.787 21.486 103.425 21.486ZM103.425 22.564C102.431 22.564 101.801 23.852 101.801 25.896C101.801 27.94 102.431 29.228 103.425 29.228C104.433 29.228 105.063 27.94 105.063 25.896C105.063 23.852 104.433 22.564 103.425 22.564ZM123.094 20.436H124.214V33.092H123.094V20.436ZM117.606 25.602H120.798V26.54H117.606V25.602ZM120.462 20.758H121.554V32.448H120.462V20.758ZM117.76 22.032H118.88C118.88 25.35 117.55 28.332 114.134 30.362L113.448 29.536C116.43 27.744 117.76 25.224 117.76 22.242V22.032ZM114.008 22.032H118.194V22.984H114.008V22.032ZM130.44 21.696H136.25V29.886H130.44V21.696ZM135.116 22.634H131.574V28.948H135.116V22.634ZM138.504 20.436H139.68V33.092H138.504V20.436ZM139.4 25.49H141.752V26.47H139.4V25.49ZM148.541 20.716C151.271 20.716 152.993 21.612 152.993 23.11C152.993 24.608 151.271 25.49 148.541 25.49C145.797 25.49 144.089 24.608 144.089 23.11C144.089 21.612 145.797 20.716 148.541 20.716ZM148.541 21.64C146.525 21.64 145.279 22.172 145.279 23.11C145.279 24.034 146.525 24.58 148.541 24.58C150.543 24.58 151.803 24.034 151.803 23.11C151.803 22.172 150.543 21.64 148.541 21.64ZM144.215 28.752H152.853V32.924H144.215V28.752ZM151.719 29.69H145.363V31.986H151.719V29.69ZM142.815 26.582H154.253V27.52H142.815V26.582ZM161.42 20.646C164.206 20.646 165.872 21.43 165.872 22.844C165.872 24.258 164.206 25.042 161.42 25.042C158.62 25.042 156.968 24.258 156.968 22.844C156.968 21.43 158.62 20.646 161.42 20.646ZM161.42 21.528C159.348 21.528 158.158 22.004 158.158 22.844C158.158 23.684 159.348 24.16 161.42 24.16C163.478 24.16 164.668 23.684 164.668 22.844C164.668 22.004 163.478 21.528 161.42 21.528ZM155.694 25.882H167.132V26.82H155.694V25.882ZM157.08 27.898H165.676V30.754H158.256V32.294H157.108V29.914H164.528V28.794H157.08V27.898ZM157.108 32.042H166.054V32.952H157.108V32.042ZM178.902 23.922H182.094V24.874H178.902V23.922ZM181.436 20.45H182.598V29.718H181.436V20.45ZM174.52 31.86H182.948V32.812H174.52V31.86ZM174.52 28.906H175.682V32.35H174.52V28.906ZM175.416 22.018H176.368V23.04C176.368 25.336 174.94 27.324 172.826 28.108L172.224 27.184C174.114 26.512 175.416 24.832 175.416 23.04V22.018ZM175.64 22.018H176.578V23.026C176.578 24.664 177.81 26.26 179.644 26.904L179.056 27.814C176.998 27.072 175.64 25.168 175.64 23.026V22.018ZM172.588 21.472H179.35V22.41H172.588V21.472ZM185.047 22.592H191.319V23.544H185.047V22.592ZM188.183 24.384C189.765 24.384 190.913 25.574 190.913 27.282C190.913 28.976 189.765 30.166 188.183 30.166C186.615 30.166 185.467 28.976 185.467 27.282C185.467 25.574 186.615 24.384 188.183 24.384ZM188.183 25.378C187.217 25.378 186.517 26.162 186.517 27.282C186.517 28.402 187.217 29.186 188.183 29.186C189.163 29.186 189.877 28.402 189.877 27.282C189.877 26.162 189.163 25.378 188.183 25.378ZM194.665 20.436H195.785V33.092H194.665V20.436ZM192.649 25.756H195.043V26.722H192.649V25.756ZM191.963 20.716H193.055V32.476H191.963V20.716ZM187.623 20.8H188.771V23.18H187.623V20.8ZM197.954 30.516H209.42V31.482H197.954V30.516ZM203.078 27.492H204.24V30.796H203.078V27.492ZM199.298 21.332H200.446V23.586H206.9V21.332H208.048V27.8H199.298V21.332ZM200.446 24.524V26.848H206.9V24.524H200.446ZM215.817 24.958H218.239V25.924H215.817V24.958ZM213.451 21.626H214.361V24.034C214.361 26.68 213.255 29.242 211.407 30.376L210.679 29.494C212.415 28.472 213.451 26.204 213.451 24.034V21.626ZM213.675 21.626H214.571V23.992C214.571 26.022 215.523 28.178 217.189 29.186L216.517 30.096C214.697 28.976 213.675 26.456 213.675 23.992V21.626ZM220.465 20.436H221.585V33.092H220.465V20.436ZM217.903 20.702H218.995V32.462H217.903V20.702ZM226.512 26.946H227.66V30.74H226.512V26.946ZM231.188 26.946H232.35V30.74H231.188V26.946ZM223.712 30.516H235.178V31.482H223.712V30.516ZM229.424 21.234C232.098 21.234 234.016 22.508 234.016 24.496C234.016 26.47 232.098 27.744 229.424 27.744C226.736 27.744 224.818 26.47 224.818 24.496C224.818 22.508 226.736 21.234 229.424 21.234ZM229.424 22.158C227.394 22.158 225.938 23.082 225.938 24.496C225.938 25.896 227.394 26.82 229.424 26.82C231.454 26.82 232.896 25.896 232.896 24.496C232.896 23.082 231.454 22.158 229.424 22.158ZM237.473 32.126C237.193 32.126 236.959 32.0373 236.773 31.86C236.586 31.6733 236.493 31.44 236.493 31.16C236.493 30.8893 236.586 30.6607 236.773 30.474C236.969 30.278 237.202 30.18 237.473 30.18C237.743 30.18 237.977 30.278 238.173 30.474C238.369 30.6607 238.467 30.8893 238.467 31.16C238.467 31.4307 238.369 31.6593 238.173 31.846C237.977 32.0327 237.743 32.126 237.473 32.126ZM23.872 50.126C23.0693 50.126 22.3553 49.9767 21.73 49.678C21.1047 49.37 20.6193 48.9453 20.274 48.404C19.9287 47.8627 19.756 47.2467 19.756 46.556V43.616C19.756 42.9253 19.9287 42.314 20.274 41.782C20.6193 41.2407 21.1 40.8207 21.716 40.522C22.332 40.2233 23.0367 40.074 23.83 40.074C24.6233 40.074 25.328 40.2 25.944 40.452C26.5693 40.6947 27.0547 41.0353 27.4 41.474C27.7453 41.9127 27.918 42.4167 27.918 42.986C27.918 43.2847 27.82 43.5227 27.624 43.7C27.428 43.868 27.1667 43.952 26.84 43.952C26.7187 43.952 26.5787 43.938 26.42 43.91C26.4387 43.7607 26.448 43.5693 26.448 43.336C26.448 42.9533 26.336 42.6173 26.112 42.328C25.888 42.0293 25.5753 41.8007 25.174 41.642C24.782 41.474 24.334 41.39 23.83 41.39C23.3353 41.39 22.892 41.4833 22.5 41.67C22.108 41.8567 21.8 42.1227 21.576 42.468C21.3613 42.804 21.254 43.1867 21.254 43.616V46.556C21.254 46.9947 21.366 47.3867 21.59 47.732C21.814 48.068 22.122 48.334 22.514 48.53C22.9153 48.7167 23.368 48.81 23.872 48.81C24.656 48.81 25.2907 48.6327 25.776 48.278C26.2707 47.914 26.518 47.4427 26.518 46.864C26.518 46.6867 26.5087 46.4953 26.49 46.29C26.6207 46.262 26.7467 46.248 26.868 46.248C27.204 46.248 27.4747 46.3413 27.68 46.528C27.8853 46.7147 27.988 46.9667 27.988 47.284C27.988 47.8347 27.8153 48.3293 27.47 48.768C27.1247 49.1973 26.6393 49.5333 26.014 49.776C25.3887 50.0093 24.6747 50.126 23.872 50.126ZM31.4765 50.126C30.7018 50.126 30.0672 49.916 29.5725 49.496C29.0778 49.0667 28.8305 48.4973 28.8305 47.788C28.8305 47.0693 29.0918 46.4953 29.6145 46.066C30.1372 45.6367 30.8138 45.422 31.6445 45.422C32.5218 45.422 33.2452 45.7207 33.8145 46.318L33.8705 46.262C33.7492 46.1313 33.6232 46.01 33.4925 45.898V45.422C33.4925 44.974 33.3478 44.6287 33.0585 44.386C32.7692 44.134 32.3632 44.008 31.8405 44.008C30.8978 44.008 30.2165 44.372 29.7965 45.1C29.6192 45.0253 29.4745 44.9227 29.3625 44.792C29.2598 44.652 29.2085 44.512 29.2085 44.372C29.2085 44.1107 29.3345 43.868 29.5865 43.644C29.8385 43.4107 30.1745 43.224 30.5945 43.084C31.0145 42.944 31.4625 42.874 31.9385 42.874C32.8532 42.874 33.5718 43.098 34.0945 43.546C34.6172 43.994 34.8785 44.6053 34.8785 45.38V49.104C34.8785 49.4587 34.7712 49.72 34.5565 49.888C34.3418 50.0467 34.0105 50.126 33.5625 50.126V49.496C33.7585 49.2813 33.8658 49.16 33.8845 49.132L33.8285 49.076C33.5205 49.4307 33.1752 49.6967 32.7925 49.874C32.4192 50.042 31.9805 50.126 31.4765 50.126ZM31.7705 49.062C32.3212 49.062 32.7505 48.95 33.0585 48.726C33.3665 48.502 33.5205 48.1893 33.5205 47.788C33.5205 47.3867 33.3665 47.0693 33.0585 46.836C32.7505 46.6027 32.3305 46.486 31.7985 46.486C31.3038 46.486 30.9118 46.6027 30.6225 46.836C30.3332 47.0693 30.1885 47.3867 30.1885 47.788C30.1885 48.1893 30.3285 48.502 30.6085 48.726C30.8885 48.95 31.2758 49.062 31.7705 49.062ZM39.8924 44.092C39.3604 44.092 38.9217 44.246 38.5764 44.554C38.231 44.862 38.0584 45.24 38.0584 45.688V49.174C38.0584 49.51 37.9417 49.7527 37.7084 49.902C37.4844 50.0513 37.1344 50.126 36.6584 50.126V44.008C36.6584 43.252 37.1064 42.874 38.0024 42.874V43.714C37.881 43.854 37.7737 43.9987 37.6804 44.148L37.7504 44.204C38.3384 43.3173 39.0804 42.874 39.9764 42.874C40.331 42.874 40.6017 42.9627 40.7884 43.14C40.9844 43.3173 41.0824 43.5367 41.0824 43.798C41.0824 43.994 41.031 44.162 40.9284 44.302C40.667 44.162 40.3217 44.092 39.8924 44.092ZM43.1078 41.95C42.8278 41.95 42.5898 41.8613 42.3938 41.684C42.1978 41.5067 42.0998 41.2827 42.0998 41.012C42.0998 40.7413 42.1978 40.5173 42.3938 40.34C42.5898 40.1627 42.8278 40.074 43.1078 40.074C43.3878 40.074 43.6211 40.1627 43.8078 40.34C44.0038 40.5173 44.1018 40.7413 44.1018 41.012C44.1018 41.2827 44.0038 41.5067 43.8078 41.684C43.6211 41.8613 43.3878 41.95 43.1078 41.95ZM42.4078 43.826C42.4078 43.49 42.5198 43.2473 42.7438 43.098C42.9771 42.9487 43.3271 42.874 43.7938 42.874V49.174C43.7938 49.5007 43.6771 49.7433 43.4438 49.902C43.2198 50.0513 42.8744 50.126 42.4078 50.126V43.826ZM48.5312 50.126C48.0086 50.126 47.5419 50.0233 47.1313 49.818C46.7299 49.6127 46.4126 49.3233 46.1793 48.95C45.9553 48.5767 45.8433 48.1473 45.8433 47.662V45.324C45.8433 44.848 45.9599 44.4233 46.1933 44.05C46.4266 43.6767 46.7533 43.3873 47.1733 43.182C47.6026 42.9767 48.0833 42.874 48.6153 42.874C49.0166 42.874 49.4039 42.958 49.7773 43.126C50.1599 43.294 50.4866 43.518 50.7573 43.798L50.7993 43.728C50.7433 43.6533 50.6453 43.5553 50.5053 43.434V41.096C50.5053 40.7693 50.6219 40.5173 50.8553 40.34C51.0886 40.1627 51.4433 40.074 51.9193 40.074V49.062C51.9193 49.3793 51.8119 49.636 51.5973 49.832C51.3919 50.028 51.0653 50.126 50.6173 50.126V49.342C50.7479 49.174 50.8366 49.0527 50.8833 48.978L50.8273 48.922C50.5379 49.3047 50.2113 49.6033 49.8473 49.818C49.4833 50.0233 49.0446 50.126 48.5312 50.126ZM48.8813 48.908C49.3479 48.908 49.7353 48.7867 50.0433 48.544C50.3606 48.3013 50.5193 48.0027 50.5193 47.648V45.338C50.5193 44.9833 50.3653 44.6893 50.0573 44.456C49.7586 44.2133 49.3619 44.092 48.8673 44.092C48.3446 44.092 47.9386 44.2087 47.6493 44.442C47.3693 44.666 47.2293 44.9833 47.2293 45.394V47.578C47.2293 48.0073 47.3693 48.3387 47.6493 48.572C47.9386 48.796 48.3493 48.908 48.8813 48.908ZM54.7699 41.95C54.4899 41.95 54.2519 41.8613 54.0559 41.684C53.8599 41.5067 53.7619 41.2827 53.7619 41.012C53.7619 40.7413 53.8599 40.5173 54.0559 40.34C54.2519 40.1627 54.4899 40.074 54.7699 40.074C55.0499 40.074 55.2832 40.1627 55.4699 40.34C55.6659 40.5173 55.7639 40.7413 55.7639 41.012C55.7639 41.2827 55.6659 41.5067 55.4699 41.684C55.2832 41.8613 55.0499 41.95 54.7699 41.95ZM54.0699 43.826C54.0699 43.49 54.1819 43.2473 54.4059 43.098C54.6392 42.9487 54.9892 42.874 55.4559 42.874V49.174C55.4559 49.5007 55.3392 49.7433 55.1059 49.902C54.8819 50.0513 54.5366 50.126 54.0699 50.126V43.826ZM57.6174 44.008C57.6174 43.252 58.0654 42.874 58.9614 42.874V43.756C58.868 43.8493 58.7654 43.98 58.6534 44.148L58.7234 44.204C59.0034 43.8027 59.3627 43.4807 59.8014 43.238C60.2494 42.9953 60.7347 42.874 61.2574 42.874C62.004 42.874 62.5967 43.1027 63.0354 43.56C63.474 44.008 63.6934 44.5867 63.6934 45.296V49.174C63.6934 49.5007 63.5767 49.7433 63.3434 49.902C63.1194 50.0513 62.774 50.126 62.3074 50.126V45.464C62.3074 45.0533 62.186 44.722 61.9434 44.47C61.7007 44.218 61.346 44.092 60.8794 44.092C60.5527 44.092 60.2447 44.1667 59.9554 44.316C59.666 44.456 59.4374 44.6473 59.2694 44.89C59.1014 45.1327 59.0174 45.3987 59.0174 45.688V49.174C59.0174 49.51 58.9007 49.7527 58.6674 49.902C58.4434 50.0513 58.0934 50.126 57.6174 50.126V44.008ZM68.252 52.926C67.7387 52.926 67.272 52.8467 66.852 52.688C66.432 52.5387 66.1007 52.3287 65.858 52.058C65.6153 51.7967 65.494 51.5073 65.494 51.19C65.494 50.686 65.8347 50.434 66.516 50.434C66.5347 50.854 66.6933 51.1853 66.992 51.428C67.3 51.6707 67.72 51.792 68.252 51.792C69.3813 51.792 69.946 51.2367 69.946 50.126V49.426C70.0767 49.314 70.1747 49.2113 70.24 49.118L70.198 49.048C69.9367 49.3187 69.6007 49.5427 69.19 49.72C68.7887 49.8973 68.392 49.986 68 49.986C67.4773 49.986 67.006 49.8833 66.586 49.678C66.1753 49.4727 65.8533 49.188 65.62 48.824C65.3867 48.4507 65.27 48.0213 65.27 47.536V45.338C65.27 44.862 65.3913 44.4373 65.634 44.064C65.8767 43.6907 66.2033 43.4013 66.614 43.196C67.0247 42.9813 67.4773 42.874 67.972 42.874C68.476 42.874 68.91 42.9813 69.274 43.196C69.6473 43.4107 69.9787 43.7047 70.268 44.078L70.324 44.022C70.24 43.8913 70.1467 43.77 70.044 43.658C70.044 43.1353 70.4827 42.874 71.36 42.874V49.958C71.36 50.5367 71.2247 51.05 70.954 51.498C70.6927 51.9553 70.324 52.3053 69.848 52.548C69.3813 52.8 68.8493 52.926 68.252 52.926ZM68.294 48.782C68.77 48.782 69.1667 48.6607 69.484 48.418C69.8107 48.166 69.974 47.8673 69.974 47.522V45.338C69.974 44.9833 69.8153 44.6847 69.498 44.442C69.1807 44.1993 68.7887 44.078 68.322 44.078C67.79 44.078 67.3793 44.1947 67.09 44.428C66.81 44.6613 66.67 44.988 66.67 45.408V47.452C66.67 47.8627 66.81 48.1893 67.09 48.432C67.3793 48.6653 67.7807 48.782 68.294 48.782ZM72.9516 45.086H84.3896V46.038H72.9516V45.086ZM74.4356 49.86H83.1296V50.812H74.4356V49.86ZM74.4356 47.144H75.5976V50.154H74.4356V47.144ZM78.6776 38.856C81.3796 38.856 83.1296 39.808 83.1296 41.39C83.1296 42.958 81.3796 43.91 78.6776 43.91C75.9616 43.91 74.2256 42.958 74.2256 41.39C74.2256 39.808 75.9616 38.856 78.6776 38.856ZM78.6776 39.808C76.6896 39.808 75.4156 40.396 75.4156 41.39C75.4156 42.384 76.6896 42.972 78.6776 42.972C80.6656 42.972 81.9396 42.384 81.9396 41.39C81.9396 40.396 80.6656 39.808 78.6776 39.808ZM93.6539 50.126C92.8512 50.126 92.1326 49.9767 91.4979 49.678C90.8726 49.37 90.3826 48.9453 90.0279 48.404C89.6826 47.8627 89.5099 47.2467 89.5099 46.556V43.616C89.5099 42.9253 89.6826 42.314 90.0279 41.782C90.3732 41.2407 90.8539 40.8207 91.4699 40.522C92.0859 40.2233 92.7906 40.074 93.5839 40.074C94.3772 40.074 95.0819 40.2 95.6979 40.452C96.3232 40.6947 96.8086 41.0353 97.1539 41.474C97.4992 41.9127 97.6719 42.412 97.6719 42.972C97.6719 43.2707 97.5692 43.5087 97.3639 43.686C97.1679 43.854 96.9019 43.938 96.5659 43.938C96.4446 43.938 96.3139 43.924 96.1739 43.896C96.1926 43.7467 96.2019 43.5553 96.2019 43.322C96.2019 42.9393 96.0899 42.6033 95.8659 42.314C95.6419 42.0153 95.3292 41.7867 94.9279 41.628C94.5359 41.46 94.0879 41.376 93.5839 41.376C92.8279 41.376 92.2072 41.586 91.7219 42.006C91.2459 42.4167 91.0079 42.9533 91.0079 43.616V46.556C91.0079 46.9947 91.1199 47.3867 91.3439 47.732C91.5679 48.0773 91.8806 48.348 92.2819 48.544C92.6832 48.7307 93.1406 48.824 93.6539 48.824C94.4192 48.824 95.0399 48.642 95.5159 48.278C96.0012 47.9047 96.2439 47.4193 96.2439 46.822V46.164H94.6619C94.3539 46.164 94.1019 46.052 93.9059 45.828C93.7099 45.5947 93.6119 45.296 93.6119 44.932H97.0279C97.2332 44.932 97.4012 44.9973 97.5319 45.128C97.6719 45.2587 97.7419 45.4267 97.7419 45.632V46.85C97.7419 47.4847 97.5692 48.054 97.2239 48.558C96.8786 49.0527 96.3932 49.44 95.7679 49.72C95.1519 49.9907 94.4472 50.126 93.6539 50.126ZM101.914 50.126C101.344 50.126 100.831 50.014 100.374 49.79C99.9165 49.566 99.5571 49.258 99.2958 48.866C99.0345 48.474 98.9038 48.0353 98.9038 47.55V45.548C98.9038 45.044 99.0391 44.5913 99.3098 44.19C99.5898 43.7793 99.9585 43.4573 100.416 43.224C100.873 42.9907 101.372 42.874 101.914 42.874C102.455 42.874 102.95 42.986 103.398 43.21C103.846 43.434 104.2 43.7467 104.462 44.148C104.723 44.54 104.854 44.988 104.854 45.492V46.36C104.854 46.5187 104.788 46.6587 104.658 46.78C104.536 46.892 104.387 46.948 104.21 46.948H100.262V47.48C100.262 47.928 100.402 48.292 100.682 48.572C100.962 48.8427 101.372 48.978 101.914 48.978C102.455 48.978 102.861 48.8613 103.132 48.628C103.412 48.3853 103.552 48.068 103.552 47.676C103.888 47.648 104.163 47.704 104.378 47.844C104.592 47.9747 104.7 48.1753 104.7 48.446C104.7 48.7353 104.569 49.0107 104.308 49.272C104.056 49.524 103.715 49.7293 103.286 49.888C102.866 50.0467 102.408 50.126 101.914 50.126ZM103.58 45.898V45.492C103.58 45.0533 103.426 44.6987 103.118 44.428C102.81 44.148 102.408 44.008 101.914 44.008C101.419 44.008 101.018 44.148 100.71 44.428C100.411 44.6987 100.262 45.0533 100.262 45.492V45.898H103.58ZM106.385 44.008C106.385 43.252 106.828 42.874 107.715 42.874V43.756C107.622 43.8493 107.519 43.98 107.407 44.148L107.477 44.204C107.776 43.7747 108.088 43.448 108.415 43.224C108.742 42.9907 109.129 42.874 109.577 42.874C110.417 42.874 110.991 43.2753 111.299 44.078C111.822 43.2753 112.531 42.874 113.427 42.874C114.08 42.874 114.589 43.098 114.953 43.546C115.326 43.994 115.513 44.5773 115.513 45.296V49.174C115.513 49.5007 115.396 49.7433 115.163 49.902C114.939 50.0513 114.594 50.126 114.127 50.126V45.394C114.127 44.5073 113.768 44.064 113.049 44.064C112.657 44.064 112.321 44.1993 112.041 44.47C111.77 44.7313 111.635 45.1 111.635 45.576V49.174C111.635 49.51 111.523 49.7527 111.299 49.902C111.075 50.0513 110.734 50.126 110.277 50.126V45.394C110.277 44.9833 110.188 44.6613 110.011 44.428C109.834 44.1853 109.558 44.064 109.185 44.064C108.774 44.064 108.434 44.2133 108.163 44.512C107.902 44.8013 107.771 45.17 107.771 45.618V49.174C107.771 49.5007 107.654 49.7433 107.421 49.902C107.197 50.0513 106.852 50.126 106.385 50.126V44.008ZM118.248 41.95C117.968 41.95 117.73 41.8613 117.534 41.684C117.338 41.5067 117.24 41.2827 117.24 41.012C117.24 40.7413 117.338 40.5173 117.534 40.34C117.73 40.1627 117.968 40.074 118.248 40.074C118.528 40.074 118.762 40.1627 118.948 40.34C119.144 40.5173 119.242 40.7413 119.242 41.012C119.242 41.2827 119.144 41.5067 118.948 41.684C118.762 41.8613 118.528 41.95 118.248 41.95ZM117.548 43.826C117.548 43.49 117.66 43.2473 117.884 43.098C118.118 42.9487 118.468 42.874 118.934 42.874V49.174C118.934 49.5007 118.818 49.7433 118.584 49.902C118.36 50.0513 118.015 50.126 117.548 50.126V43.826ZM121.096 44.008C121.096 43.252 121.544 42.874 122.44 42.874V43.756C122.347 43.8493 122.244 43.98 122.132 44.148L122.202 44.204C122.482 43.8027 122.841 43.4807 123.28 43.238C123.728 42.9953 124.213 42.874 124.736 42.874C125.483 42.874 126.075 43.1027 126.514 43.56C126.953 44.008 127.172 44.5867 127.172 45.296V49.174C127.172 49.5007 127.055 49.7433 126.822 49.902C126.598 50.0513 126.253 50.126 125.786 50.126V45.464C125.786 45.0533 125.665 44.722 125.422 44.47C125.179 44.218 124.825 44.092 124.358 44.092C124.031 44.092 123.723 44.1667 123.434 44.316C123.145 44.456 122.916 44.6473 122.748 44.89C122.58 45.1327 122.496 45.3987 122.496 45.688V49.174C122.496 49.51 122.379 49.7527 122.146 49.902C121.922 50.0513 121.572 50.126 121.096 50.126V44.008ZM129.911 41.95C129.631 41.95 129.393 41.8613 129.197 41.684C129.001 41.5067 128.903 41.2827 128.903 41.012C128.903 40.7413 129.001 40.5173 129.197 40.34C129.393 40.1627 129.631 40.074 129.911 40.074C130.191 40.074 130.424 40.1627 130.611 40.34C130.807 40.5173 130.905 40.7413 130.905 41.012C130.905 41.2827 130.807 41.5067 130.611 41.684C130.424 41.8613 130.191 41.95 129.911 41.95ZM129.211 43.826C129.211 43.49 129.323 43.2473 129.547 43.098C129.78 42.9487 130.13 42.874 130.597 42.874V49.174C130.597 49.5007 130.48 49.7433 130.247 49.902C130.023 50.0513 129.677 50.126 129.211 50.126V43.826ZM145.355 38.436H146.517V51.092H145.355V38.436ZM141.645 39.794H142.793C142.793 43.462 141.141 46.668 136.913 48.74L136.297 47.802C139.951 46.038 141.645 43.35 141.645 39.99V39.794ZM136.871 39.794H142.149V40.746H136.871V39.794ZM157.674 38.45H158.836V47.732H157.674V38.45ZM158.472 42.272H160.712V43.238H158.472V42.272ZM150.954 49.86H159.41V50.812H150.954V49.86ZM150.954 46.836H152.116V50.084H150.954V46.836ZM149.54 39.346H150.688V41.46H154.258V39.346H155.392V45.618H149.54V39.346ZM150.688 42.37V44.68H154.258V42.37H150.688ZM170.887 39.752H172.021C172.021 43.406 170.789 46.766 166.253 49.02L165.623 48.124C169.627 46.15 170.887 43.322 170.887 39.878V39.752ZM166.309 39.752H171.573V40.69H166.309V39.752ZM170.705 42.888V43.784L165.861 44.26L165.679 43.224L170.705 42.888ZM174.065 38.422H175.241V51.092H174.065V38.422ZM174.919 43.56H177.257V44.526H174.919V43.56ZM179.831 44.498H188.525V45.45H179.831V44.498ZM178.389 48.418H189.855V49.384H178.389V48.418ZM179.831 39.598H188.399V40.564H180.993V44.918H179.831V39.598ZM197.524 39.22H198.448V40.914C198.448 42.804 197.356 44.792 195.494 45.618L194.864 44.708C196.53 43.98 197.524 42.342 197.524 40.914V39.22ZM197.706 39.22H198.63V40.914C198.63 42.314 199.582 43.742 201.206 44.372L200.576 45.254C198.756 44.526 197.706 42.776 197.706 40.914V39.22ZM204.426 38.45H205.532V46.248H204.426V38.45ZM202.41 41.824H204.804V42.776H202.41V41.824ZM201.71 38.688H202.816V45.842H201.71V38.688ZM201.374 46.528C203.978 46.528 205.602 47.368 205.602 48.81C205.602 50.238 203.978 51.064 201.374 51.064C198.756 51.064 197.16 50.238 197.16 48.81C197.16 47.368 198.756 46.528 201.374 46.528ZM201.374 47.438C199.47 47.438 198.294 47.942 198.294 48.81C198.294 49.664 199.47 50.168 201.374 50.168C203.278 50.168 204.44 49.664 204.44 48.81C204.44 47.942 203.278 47.438 201.374 47.438ZM210.935 39.15H211.901V40.452C211.901 42.902 210.515 44.904 208.345 45.716L207.743 44.764C209.675 44.078 210.935 42.384 210.935 40.452V39.15ZM211.145 39.15H212.097V40.41C212.097 42.202 213.329 43.784 215.177 44.428L214.547 45.338C212.503 44.568 211.145 42.706 211.145 40.41V39.15ZM216.997 38.436H218.159V45.926H216.997V38.436ZM214.001 46.29C216.605 46.29 218.215 47.172 218.215 48.684C218.215 50.196 216.605 51.064 214.001 51.064C211.383 51.064 209.773 50.196 209.773 48.684C209.773 47.172 211.383 46.29 214.001 46.29ZM214.001 47.214C212.097 47.214 210.935 47.76 210.935 48.684C210.935 49.608 212.097 50.154 214.001 50.154C215.905 50.154 217.067 49.608 217.067 48.684C217.067 47.76 215.905 47.214 214.001 47.214ZM214.253 41.11H217.249V42.076H214.253V41.11ZM230.559 42.72H234.087V43.672H230.559V42.72ZM227.507 39.528H228.459V41.782C228.459 44.624 226.961 47.34 224.959 48.418L224.217 47.494C226.079 46.57 227.507 44.134 227.507 41.782V39.528ZM227.731 39.528H228.669V41.782C228.669 44.092 230.097 46.388 231.931 47.256L231.245 48.194C229.201 47.158 227.731 44.554 227.731 41.782V39.528ZM233.513 38.422H234.661V51.106H233.513V38.422ZM246.308 38.422H247.47V51.106H246.308V38.422ZM237.838 39.5H238.986V42.846H242.64V39.5H243.802V48.054H237.838V39.5ZM238.986 43.77V47.102H242.64V43.77H238.986ZM255.071 39.304H256.079V40.27C256.079 43.028 253.517 45.17 250.983 45.744L250.465 44.778C252.691 44.358 255.071 42.426 255.071 40.27V39.304ZM255.281 39.304H256.289V40.27C256.289 42.44 258.683 44.358 260.895 44.778L260.377 45.744C257.857 45.17 255.281 43.042 255.281 40.27V39.304ZM250.003 48.432H261.469V49.384H250.003V48.432ZM275.689 38.436H276.865V45.226H275.689V38.436ZM268.703 45.856H269.851V47.396H275.717V45.856H276.865V50.924H268.703V45.856ZM269.851 48.32V49.986H275.717V48.32H269.851ZM270.075 39.038C271.993 39.038 273.365 40.228 273.365 41.95C273.365 43.686 271.993 44.876 270.075 44.876C268.157 44.876 266.771 43.686 266.771 41.95C266.771 40.228 268.157 39.038 270.075 39.038ZM270.075 40.004C268.815 40.004 267.905 40.802 267.905 41.95C267.905 43.098 268.815 43.896 270.075 43.896C271.335 43.896 272.245 43.098 272.245 41.95C272.245 40.802 271.335 40.004 270.075 40.004ZM288.568 38.436H289.73V51.092H288.568V38.436ZM280.168 39.668H281.316V47.508H280.168V39.668ZM280.168 46.822H281.204C283.122 46.822 285.124 46.682 287.266 46.234L287.406 47.228C285.208 47.676 283.206 47.83 281.204 47.83H280.168V46.822ZM300.803 38.422H301.979V51.106H300.803V38.422ZM301.699 43.42H304.051V44.4H301.699V43.42ZM292.781 46.976H293.775C296.113 46.976 297.751 46.892 299.641 46.542L299.767 47.522C297.821 47.886 296.155 47.956 293.775 47.956H292.781V46.976ZM292.781 39.654H298.661V40.606H293.929V47.41H292.781V39.654ZM306.01 50.126C305.73 50.126 305.496 50.0373 305.31 49.86C305.123 49.6733 305.03 49.44 305.03 49.16C305.03 48.8893 305.123 48.6607 305.31 48.474C305.506 48.278 305.739 48.18 306.01 48.18C306.28 48.18 306.514 48.278 306.71 48.474C306.906 48.6607 307.004 48.8893 307.004 49.16C307.004 49.4307 306.906 49.6593 306.71 49.846C306.514 50.0327 306.28 50.126 306.01 50.126Z" fill="#F76782"/>
</svg>
