<svg width="248" height="129" viewBox="0 0 248 129" fill="none" xmlns="http://www.w3.org/2000/svg">
<path d="M8.828 45.404C6.452 45.404 4.76 44.738 3.752 43.406C2.744 42.038 2.24 40.022 2.24 37.358C2.24 34.658 3.374 27.044 5.642 14.516L2.78 8.738C6.848 6.11 10.556 4.796 13.904 4.796C16.676 4.796 18.062 6.488 18.062 9.872C18.062 10.88 17.36 15.092 15.956 22.508C14.588 29.924 13.904 34.64 13.904 36.656H19.736C22.472 36.26 25.226 35.558 27.998 34.55C28.214 35.198 28.322 36.08 28.322 37.196C28.322 39.32 27.692 41.21 26.432 42.866C25.208 44.522 23.498 45.35 21.302 45.35C19.826 45.35 17.27 44.954 13.634 44.162C12.122 44.99 10.52 45.404 8.828 45.404ZM46.5107 45.35C41.5787 45.35 37.7627 44.072 35.0627 41.516C32.3987 38.96 31.0667 35.504 31.0667 31.148C31.0667 25.352 33.0467 20.654 37.0067 17.054C41.0027 13.418 46.0067 11.6 52.0187 11.6C55.3667 11.6 57.9047 12.356 59.6327 13.868C61.3607 15.344 62.2247 17.306 62.2247 19.754C62.2247 23.102 60.5867 25.892 57.3107 28.124C54.0707 30.32 49.0487 31.436 42.2447 31.472C42.3527 33.776 42.8747 35.594 43.8107 36.926C44.7467 38.222 45.9167 38.87 47.3207 38.87C48.7247 38.87 49.9307 38.402 50.9387 37.466C51.9827 36.53 52.5047 35 52.5047 32.876C57.7607 32.876 60.3887 34.118 60.3887 36.602C60.3887 38.726 59.0927 40.724 56.5007 42.596C53.9087 44.432 50.5787 45.35 46.5107 45.35ZM51.1007 17.918C49.2647 17.918 47.5727 18.836 46.0247 20.672C44.5127 22.508 43.4147 24.668 42.7307 27.152C46.3307 26.864 49.0307 26.054 50.8307 24.722C52.6667 23.354 53.5847 21.914 53.5847 20.402C53.5847 19.682 53.3507 19.088 52.8827 18.62C52.4507 18.152 51.8567 17.918 51.1007 17.918ZM67.745 24.506C67.493 23.498 67.367 22.562 67.367 21.698C67.367 19.934 67.889 18.602 68.933 17.702C69.977 16.802 71.327 16.352 72.983 16.352C72.983 14.48 72.497 12.446 71.525 10.25C73.289 8.954 74.891 7.982 76.331 7.334C77.807 6.65 79.355 6.308 80.975 6.308C82.595 6.308 83.711 6.614 84.323 7.226C84.971 7.802 85.295 8.702 85.295 9.926C85.295 11.15 85.043 13.058 84.539 15.65C85.979 15.434 87.437 15.128 88.913 14.732C89.165 15.488 89.291 16.46 89.291 17.648C89.291 18.836 88.823 19.952 87.887 20.996C86.987 22.004 85.655 22.508 83.891 22.508H83.081C81.785 28.376 81.137 32.894 81.137 36.062C81.137 39.23 81.695 41.444 82.811 42.704C80.795 44.468 78.653 45.35 76.385 45.35C74.117 45.35 72.479 44.684 71.471 43.352C70.499 41.984 70.013 39.878 70.013 37.034C70.013 35.306 70.643 30.77 71.903 23.426C70.463 23.678 69.077 24.038 67.745 24.506ZM98.3946 12.14L94.6146 7.28C94.6866 5.552 95.4066 4.04 96.7746 2.744C98.1426 1.448 99.7266 0.799999 101.527 0.799999C103.327 0.799999 104.749 1.412 105.793 2.636C106.837 3.86 107.359 5.318 107.359 7.01C107.359 10.754 106.099 14.084 103.579 17C101.059 19.88 97.6926 21.752 93.4806 22.616L92.6706 20.24C94.3626 19.448 95.7306 18.26 96.7746 16.676C97.8546 15.056 98.3946 13.544 98.3946 12.14ZM127.882 18.782C126.55 19.178 125.488 19.754 124.696 20.51C123.904 21.23 123.202 22.274 122.59 23.642C128.674 24.542 132.958 25.838 135.442 27.53C137.926 29.222 139.168 31.634 139.168 34.766C139.168 36.746 138.61 38.474 137.494 39.95C136.378 41.39 134.974 42.488 133.282 43.244C129.97 44.648 126.712 45.35 123.508 45.35C114.4 45.35 109.846 43.388 109.846 39.464C109.846 37.484 110.728 35.504 112.492 33.524C113.392 34.784 114.742 35.864 116.542 36.764C118.378 37.664 120.16 38.114 121.888 38.114C124.876 38.114 126.676 36.8 127.288 34.172C121.816 33.524 117.856 32.3 115.408 30.5C112.96 28.7 111.736 26.162 111.736 22.886C111.736 20.294 112.582 18.116 114.274 16.352C116.002 14.588 118.126 13.364 120.646 12.68C123.202 11.96 126.064 11.6 129.232 11.6C132.436 11.6 135.064 12.212 137.116 13.436C139.204 14.624 140.248 16.082 140.248 17.81C140.248 19.538 139.636 20.87 138.412 21.806C137.224 22.742 135.91 23.21 134.47 23.21C133.066 23.21 131.77 22.832 130.582 22.076C129.43 21.32 128.53 20.222 127.882 18.782Z" fill="#FF6F8B"/>
<path d="M0.65 99.115C0.65 96.5483 1.2 93.945 2.3 91.305C3.4 88.6283 4.95833 86.1533 6.975 83.88C8.99167 81.6067 11.6133 79.755 14.84 78.325C18.1033 76.8583 21.4583 76.125 24.905 76.125C28.3883 76.125 31.1017 76.7667 33.045 78.05C35.025 79.3333 36.015 81.1117 36.015 83.385C36.015 85.6583 35.2633 87.4367 33.76 88.72C32.2933 89.9667 30.6067 90.59 28.7 90.59C26.7933 90.59 25.07 90.1867 23.53 89.38C22.0267 88.5367 20.8167 87.345 19.9 85.805C17.92 86.7583 16.215 88.6283 14.785 91.415C13.355 94.2017 12.64 97.0067 12.64 99.83C12.64 102.617 13.0983 104.835 14.015 106.485C14.9317 108.098 16.2333 108.905 17.92 108.905C19.6067 108.905 21.0917 108.043 22.375 106.32C23.695 104.597 24.355 102.525 24.355 100.105C28.0583 100.105 30.6983 100.398 32.275 100.985C33.8883 101.572 34.695 102.837 34.695 104.78C34.695 107.823 33.045 110.683 29.745 113.36C26.445 116.037 22.3017 117.375 17.315 117.375C12.3283 117.375 8.295 115.835 5.215 112.755C2.17167 109.675 0.65 105.128 0.65 99.115ZM60.0289 109.235L59.4789 108.96C58.4889 111.6 57.0589 113.672 55.1889 115.175C53.3556 116.642 51.3023 117.375 49.0289 117.375C45.9123 117.375 43.4189 116.202 41.5489 113.855C39.6789 111.508 38.7439 108.373 38.7439 104.45C38.7439 98.3633 40.7789 93.2667 44.8489 89.16C48.9556 85.0533 54.0523 83 60.1389 83C61.7156 83 63.1639 83.1467 64.4839 83.44C64.7039 84.4667 64.8323 85.365 64.8689 86.135C66.7023 84.9617 68.5906 84.375 70.5339 84.375C73.2106 84.375 74.5489 85.8233 74.5489 88.72C74.5489 89.7467 73.9623 92.845 72.7889 98.015C71.6523 103.185 71.0839 107.017 71.0839 109.51C71.0839 112.003 71.6523 113.727 72.7889 114.68C70.7356 116.477 68.5906 117.375 66.3539 117.375C64.1539 117.375 62.5406 116.715 61.5139 115.395C60.5239 114.075 60.0289 112.022 60.0289 109.235ZM49.0839 101.755C49.0839 103.552 49.4506 104.945 50.1839 105.935C50.9539 106.888 52.0356 107.365 53.4289 107.365C54.8223 107.365 56.1973 106.852 57.5539 105.825C58.9106 104.798 60.0473 103.387 60.9639 101.59C61.2939 97.8867 62.0089 93.505 63.1089 88.445C59.4056 88.445 56.1423 89.7833 53.3189 92.46C50.4956 95.1367 49.0839 98.235 49.0839 101.755ZM80.067 110.555C80.067 109.088 80.4337 106.247 81.167 102.03C81.937 97.8133 82.7253 93.9633 83.532 90.48L80.672 86.08C85.2553 84.0267 88.4637 83 90.297 83C92.167 83 93.102 84.1733 93.102 86.52C93.102 87.8033 92.497 90.48 91.287 94.55L91.837 94.825C94.477 86.9417 97.7587 83 101.682 83C103.479 83 104.854 83.55 105.807 84.65C106.76 85.75 107.237 86.9783 107.237 88.335C107.237 90.3517 106.485 92.075 104.982 93.505C103.479 94.935 101.224 95.65 98.217 95.65C93.6703 95.65 91.397 100.325 91.397 109.675C91.397 111.948 91.782 113.617 92.552 114.68C90.2787 116.477 88.1887 117.375 86.282 117.375C82.1387 117.375 80.067 115.102 80.067 110.555ZM129.913 111.985L129.363 111.71C126.503 115.487 123.093 117.375 119.133 117.375C116.2 117.375 113.707 116.22 111.653 113.91C109.637 111.563 108.628 108.41 108.628 104.45C108.628 99.5367 110.352 95.0633 113.798 91.03C115.485 89.05 117.74 87.455 120.563 86.245C123.387 84.9983 126.54 84.375 130.023 84.375C130.683 84.375 131.857 84.4483 133.543 84.595C133.617 83.825 133.782 82.89 134.038 81.79L130.958 77.39C135.542 74.7133 139.153 73.375 141.793 73.375C143.297 73.375 144.36 73.6867 144.983 74.31C145.607 74.8967 145.918 76.0333 145.918 77.72C145.918 79.37 145.093 84.0633 143.443 91.8C141.83 99.5367 141.023 105.037 141.023 108.3C141.023 111.527 141.592 113.653 142.728 114.68C140.675 116.477 138.53 117.375 136.293 117.375C134.093 117.375 132.48 116.825 131.453 115.725C130.427 114.588 129.913 113.342 129.913 111.985ZM118.968 102.36C118.968 104.45 119.5 106.1 120.563 107.31C121.663 108.52 123.02 109.125 124.633 109.125C126.723 109.125 128.63 108.135 130.353 106.155C130.94 99.6283 131.765 93.9817 132.828 89.215C128.612 89.215 125.238 90.5717 122.708 93.285C120.215 95.9983 118.968 99.0233 118.968 102.36ZM168.086 74.31C168.086 75.7033 167.353 76.9133 165.886 77.94C164.419 78.93 162.751 79.425 160.881 79.425C159.011 79.425 157.526 79.0583 156.426 78.325C155.363 77.5917 154.831 76.6017 154.831 75.355C154.831 73.6683 155.619 72.3483 157.196 71.395C158.773 70.4417 160.441 69.965 162.201 69.965C163.961 69.965 165.373 70.3317 166.436 71.065C167.536 71.7983 168.086 72.88 168.086 74.31ZM157.361 117.375C155.088 117.375 153.438 116.807 152.411 115.67C151.384 114.533 150.871 112.81 150.871 110.5C150.871 108.153 152.044 101.902 154.391 91.745L151.311 87.125C155.894 84.375 159.506 83 162.146 83C163.649 83 164.713 83.33 165.336 83.99C165.959 84.6133 166.271 85.64 166.271 87.07C166.271 87.62 165.593 90.8467 164.236 96.75C162.879 102.653 162.201 106.87 162.201 109.4C162.201 111.93 162.769 113.69 163.906 114.68C161.853 116.477 159.671 117.375 157.361 117.375ZM177.969 117.375C175.806 117.375 174.211 116.807 173.184 115.67C172.157 114.533 171.644 113.03 171.644 111.16C171.644 109.29 172.011 106.247 172.744 102.03C173.514 97.8133 174.302 93.9633 175.109 90.48L172.249 86.08C175.879 84.0267 179.234 83 182.314 83C185.394 83 186.934 84.3933 186.934 87.18C186.934 89.0133 186.512 90.8833 185.669 92.79L186.219 93.065C190.142 86.355 195.129 83 201.179 83C205.616 83 207.834 85.2183 207.834 89.655C207.834 91.5617 207.284 94.7883 206.184 99.335C205.121 103.882 204.589 107.31 204.589 109.62C204.589 111.93 204.974 113.617 205.744 114.68C203.801 116.477 201.747 117.375 199.584 117.375C195.367 117.375 193.259 115.102 193.259 110.555C193.259 108.868 193.809 106.008 194.909 101.975C196.009 97.9417 196.559 95.32 196.559 94.11C196.559 92.46 195.936 91.635 194.689 91.635C193.662 91.635 192.489 92.0933 191.169 93.01C189.849 93.89 188.566 95.1 187.319 96.64C186.109 98.1433 185.082 100.068 184.239 102.415C183.396 104.725 182.974 107.09 182.974 109.51C182.974 111.893 183.359 113.617 184.129 114.68C182.186 116.477 180.132 117.375 177.969 117.375ZM223.444 100.6C223.444 102.47 223.957 103.992 224.984 105.165C226.047 106.302 227.349 106.87 228.889 106.87C230.979 106.87 232.849 105.88 234.499 103.9C235.122 100.637 235.929 95.485 236.919 88.445C232.812 88.445 229.53 89.6367 227.074 92.02C224.654 94.4033 223.444 97.2633 223.444 100.6ZM238.019 121.445C236.295 123.755 234.132 125.57 231.529 126.89C228.925 128.247 226.175 128.925 223.279 128.925C220.419 128.925 218.109 128.375 216.349 127.275C214.625 126.212 213.764 124.763 213.764 122.93C213.764 121.097 214.515 119.172 216.019 117.155C217.705 119.648 220.235 120.895 223.609 120.895C225.809 120.895 227.844 119.942 229.714 118.035C231.62 116.165 232.885 113.415 233.509 109.785L232.959 109.51C230.355 113.323 227.019 115.23 222.949 115.23C219.869 115.23 217.449 114.038 215.689 111.655C213.929 109.272 213.049 106.1 213.049 102.14C213.049 98.3267 214.094 94.8433 216.184 91.69C218.567 88.06 221.885 85.5483 226.139 84.155C228.485 83.385 230.722 83 232.849 83C234.975 83 236.772 83.1467 238.239 83.44C238.459 84.43 238.587 85.3283 238.624 86.135C240.347 84.9617 242.089 84.375 243.849 84.375C246.379 84.375 247.644 85.6767 247.644 88.28C247.644 90.8833 247.479 93.56 247.149 96.31C246.819 99.0233 246.305 101.938 245.609 105.055C244.912 108.172 243.904 111.123 242.584 113.91C241.3 116.66 239.779 119.172 238.019 121.445Z" fill="url(#paint0_linear_29_4530)"/>
<defs>
<linearGradient id="paint0_linear_29_4530" x1="-1" y1="61" x2="251" y2="61" gradientUnits="userSpaceOnUse">
<stop stop-color="#A67DFF"/>
<stop offset="1" stop-color="#E85060"/>
</linearGradient>
</defs>
</svg>
